<!-- Generated by IcoMoon.io -->
<svg version="1.1" xmlns="http://www.w3.org/2000/svg" width="59" height="64" viewBox="0 0 59 64">
<title>shopping-cart</title>
<path d="M22.857 54.857c0 2.5-2.071 4.571-4.571 4.571s-4.571-2.071-4.571-4.571 2.071-4.571 4.571-4.571 4.571 2.071 4.571 4.571zM54.857 54.857c0 2.5-2.071 4.571-4.571 4.571s-4.571-2.071-4.571-4.571 2.071-4.571 4.571-4.571 4.571 2.071 4.571 4.571zM59.429 16v18.286c0 1.143-0.893 2.143-2.036 2.286l-37.286 4.357c0.179 0.821 0.464 1.643 0.464 2.5 0 0.821-0.5 1.571-0.857 2.286h32.857c1.25 0 2.286 1.036 2.286 2.286s-1.036 2.286-2.286 2.286h-36.571c-1.25 0-2.286-1.036-2.286-2.286 0-1.107 1.607-3.786 2.179-4.893l-6.321-29.393h-7.286c-1.25 0-2.286-1.036-2.286-2.286s1.036-2.286 2.286-2.286h9.143c2.393 0 2.464 2.857 2.821 4.571h42.893c1.25 0 2.286 1.036 2.286 2.286z"></path>
</svg>
