<!-- Generated by IcoMoon.io -->
<svg version="1.1" xmlns="http://www.w3.org/2000/svg" width="64" height="64" viewBox="0 0 64 64">
<title>envelope-o</title>
<path d="M59.429 53.714v-27.429c-0.75 0.857-1.571 1.643-2.464 2.357-5.107 3.929-10.25 7.929-15.214 12.071-2.679 2.25-6 5-9.714 5h-0.071c-3.714 0-7.036-2.75-9.714-5-4.964-4.143-10.107-8.143-15.214-12.071-0.893-0.714-1.714-1.5-2.464-2.357v27.429c0 0.607 0.536 1.143 1.143 1.143h52.571c0.607 0 1.143-0.536 1.143-1.143zM59.429 16.179c0-0.893 0.214-2.464-1.143-2.464h-52.571c-0.607 0-1.143 0.536-1.143 1.143 0 4.071 2.036 7.607 5.25 10.143 4.786 3.75 9.571 7.536 14.321 11.321 1.893 1.536 5.321 4.821 7.821 4.821h0.071c2.5 0 5.929-3.286 7.821-4.821 4.75-3.786 9.536-7.571 14.321-11.321 2.321-1.821 5.25-5.786 5.25-8.821zM64 14.857v38.857c0 3.143-2.571 5.714-5.714 5.714h-52.571c-3.143 0-5.714-2.571-5.714-5.714v-38.857c0-3.143 2.571-5.714 5.714-5.714h52.571c3.143 0 5.714 2.571 5.714 5.714z"></path>
</svg>
