<!-- Generated by IcoMoon.io -->
<svg version="1.1" xmlns="http://www.w3.org/2000/svg" width="50" height="64" viewBox="0 0 50 64">
<title>phone</title>
<path d="M50.286 44.286c0 1.286-0.571 3.786-1.107 4.964-0.75 1.75-2.75 2.893-4.357 3.786-2.107 1.143-4.25 1.821-6.643 1.821-3.321 0-6.321-1.357-9.357-2.464-2.179-0.786-4.286-1.75-6.25-2.964-6.071-3.75-13.393-11.071-17.143-17.143-1.214-1.964-2.179-4.071-2.964-6.25-1.107-3.036-2.464-6.036-2.464-9.357 0-2.393 0.679-4.536 1.821-6.643 0.893-1.607 2.036-3.607 3.786-4.357 1.179-0.536 3.679-1.107 4.964-1.107 0.25 0 0.5 0 0.75 0.107 0.75 0.25 1.536 2 1.893 2.714 1.143 2.036 2.25 4.107 3.429 6.107 0.571 0.929 1.643 2.071 1.643 3.179 0 2.179-6.464 5.357-6.464 7.286 0 0.964 0.893 2.214 1.393 3.071 3.607 6.5 8.107 11 14.607 14.607 0.857 0.5 2.107 1.393 3.071 1.393 1.929 0 5.107-6.464 7.286-6.464 1.107 0 2.25 1.071 3.179 1.643 2 1.179 4.071 2.286 6.107 3.429 0.714 0.357 2.464 1.143 2.714 1.893 0.107 0.25 0.107 0.5 0.107 0.75z"></path>
</svg>
