<!-- Generated by IcoMoon.io -->
<svg version="1.1" xmlns="http://www.w3.org/2000/svg" width="64" height="64" viewBox="0 0 64 64">
<title>shopping-bag</title>
<path d="M62.75 50.286l1.25 11.179c0.071 0.643-0.143 1.286-0.571 1.786-0.429 0.464-1.071 0.75-1.714 0.75h-59.429c-0.643 0-1.286-0.286-1.714-0.75-0.429-0.5-0.643-1.143-0.571-1.786l1.25-11.179h61.5zM59.429 20.321l3.071 27.679h-61l3.071-27.679c0.143-1.143 1.107-2.036 2.286-2.036h9.143v4.571c0 2.536 2.036 4.571 4.571 4.571s4.571-2.036 4.571-4.571v-4.571h13.714v4.571c0 2.536 2.036 4.571 4.571 4.571s4.571-2.036 4.571-4.571v-4.571h9.143c1.179 0 2.143 0.893 2.286 2.036zM45.714 13.714v9.143c0 1.25-1.036 2.286-2.286 2.286s-2.286-1.036-2.286-2.286v-9.143c0-5.036-4.107-9.143-9.143-9.143s-9.143 4.107-9.143 9.143v9.143c0 1.25-1.036 2.286-2.286 2.286s-2.286-1.036-2.286-2.286v-9.143c0-7.571 6.143-13.714 13.714-13.714s13.714 6.143 13.714 13.714z"></path>
</svg>
