<svg style="display:none;"><symbol viewBox="0 0 48 48" id="icon-add"><title>add</title>  <path d="M37.969 25.969h-12v12h-3.938v-12h-12v-3.938h12v-12h3.938v12h12v3.938z"/> </symbol><symbol viewBox="0 0 768 768" id="icon-directions"><title>directions</title>   <path d="M448.5 463.5l111-111-111-112.5v79.5h-160.5c-18 0-31.5 15-31.5 33v127.5h63v-96h129v79.5zM694.5 361.5c12 13.5 12 33 0 45l-288 288c-12 12-33 12-45 0l-288-288c-12-12-12-33 0-45l288-288c12-12 33-12 45 0z"/> </symbol><symbol viewBox="0 0 384 238" id="icon-down"><title>down</title><desc>Created with Sketch.</desc> <!-- Generator: Sketch 54.1 (76490) - https://sketchapp.com -->   <g id="down-Page-1" stroke="none" stroke-width="1" fill-rule="evenodd"> <g id="down-down" fill-rule="nonzero"> <polygon id="down-Path" points="45 0.5 192 147.5 339 0.5 384 45.5 192 237.5 0 45.5"/> </g> </g> </symbol><symbol viewBox="0 0 28 28" id="icon-external-link"><title>external-link</title>  <path d="M22 14.5v5c0 2.484-2.016 4.5-4.5 4.5h-13c-2.484 0-4.5-2.016-4.5-4.5v-13c0-2.484 2.016-4.5 4.5-4.5h11c0.281 0 0.5 0.219 0.5 0.5v1c0 0.281-0.219 0.5-0.5 0.5h-11c-1.375 0-2.5 1.125-2.5 2.5v13c0 1.375 1.125 2.5 2.5 2.5h13c1.375 0 2.5-1.125 2.5-2.5v-5c0-0.281 0.219-0.5 0.5-0.5h1c0.281 0 0.5 0.219 0.5 0.5zM28 1v8c0 0.547-0.453 1-1 1-0.266 0-0.516-0.109-0.703-0.297l-2.75-2.75-10.187 10.187c-0.094 0.094-0.234 0.156-0.359 0.156s-0.266-0.063-0.359-0.156l-1.781-1.781c-0.094-0.094-0.156-0.234-0.156-0.359s0.063-0.266 0.156-0.359l10.187-10.187-2.75-2.75c-0.187-0.187-0.297-0.438-0.297-0.703 0-0.547 0.453-1 1-1h8c0.547 0 1 0.453 1 1z"/> </symbol><symbol viewBox="0 0 32 32" id="icon-facebook"><title>facebook</title>  <path d="M30.235 0h-28.469c-0.975 0-1.765 0.791-1.765 1.765v28.469c0 0.976 0.791 1.765 1.765 1.765h15.325v-12.392h-4.172v-4.828h4.172v-3.567c0-4.132 2.525-6.38 6.212-6.38 1.767 0 3.285 0.129 3.728 0.188v4.32h-2.561c-2 0-2.389 0.961-2.389 2.361v3.081h4.779l-0.62 4.84h-4.159v12.376h8.153c0.977 0 1.767-0.789 1.767-1.765v-28.469c0-0.975-0.789-1.765-1.765-1.765z"/> </symbol><symbol viewBox="0 0 768 768" id="icon-location"><title>location</title>   <path d="M384 607.5c124.5 0 223.5-99 223.5-223.5s-99-223.5-223.5-223.5-223.5 99-223.5 223.5 99 223.5 223.5 223.5zM670.5 352.5h66v63h-66c-15 133.5-121.5 240-255 255v66h-63v-66c-133.5-15-240-121.5-255-255h-66v-63h66c15-133.5 121.5-240 255-255v-66h63v66c133.5 15 240 121.5 255 255zM384 256.5c70.5 0 127.5 57 127.5 127.5s-57 127.5-127.5 127.5-127.5-57-127.5-127.5 57-127.5 127.5-127.5z"/> </symbol><symbol viewBox="0 0 768 768" id="icon-photos"><title>photos</title>   <path d="M64.5 192h63v448.5h448.5v63h-448.5c-34.5 0-63-28.5-63-63v-448.5zM352.5 384l-96 127.5h384l-129-159-94.5 118.5zM703.5 511.5c0 34.5-28.5 64.5-63 64.5h-384c-34.5 0-64.5-30-64.5-64.5v-384c0-34.5 30-63 64.5-63h384c34.5 0 63 28.5 63 63v384z"/> </symbol></svg>