<svg style="display:none;"><symbol viewBox="0 0 48 48" id="icon-add"><title>add</title>  <path d="M37.969 25.969h-12v12h-3.938v-12h-12v-3.938h12v-12h3.938v12h12v3.938z"/> </symbol><symbol viewBox="0 0 768 768" id="icon-directions"><title>directions</title>   <path d="M448.5 463.5l111-111-111-112.5v79.5h-160.5c-18 0-31.5 15-31.5 33v127.5h63v-96h129v79.5zM694.5 361.5c12 13.5 12 33 0 45l-288 288c-12 12-33 12-45 0l-288-288c-12-12-12-33 0-45l288-288c12-12 33-12 45 0z"/> </symbol><symbol viewBox="0 0 384 238" id="icon-down"><title>down</title><desc>Created with Sketch.</desc> <!-- Generator: Sketch 54.1 (76490) - https://sketchapp.com -->   <g id="down-Page-1" stroke="none" stroke-width="1" fill-rule="evenodd"> <g id="down-down" fill-rule="nonzero"> <polygon id="down-Path" points="45 0.5 192 147.5 339 0.5 384 45.5 192 237.5 0 45.5"/> </g> </g> </symbol><symbol viewBox="0 0 28 28" id="icon-external-link"><title>external-link</title>  <path d="M22 14.5v5c0 2.484-2.016 4.5-4.5 4.5h-13c-2.484 0-4.5-2.016-4.5-4.5v-13c0-2.484 2.016-4.5 4.5-4.5h11c0.281 0 0.5 0.219 0.5 0.5v1c0 0.281-0.219 0.5-0.5 0.5h-11c-1.375 0-2.5 1.125-2.5 2.5v13c0 1.375 1.125 2.5 2.5 2.5h13c1.375 0 2.5-1.125 2.5-2.5v-5c0-0.281 0.219-0.5 0.5-0.5h1c0.281 0 0.5 0.219 0.5 0.5zM28 1v8c0 0.547-0.453 1-1 1-0.266 0-0.516-0.109-0.703-0.297l-2.75-2.75-10.187 10.187c-0.094 0.094-0.234 0.156-0.359 0.156s-0.266-0.063-0.359-0.156l-1.781-1.781c-0.094-0.094-0.156-0.234-0.156-0.359s0.063-0.266 0.156-0.359l10.187-10.187-2.75-2.75c-0.187-0.187-0.297-0.438-0.297-0.703 0-0.547 0.453-1 1-1h8c0.547 0 1 0.453 1 1z"/> </symbol><symbol viewBox="0 0 32 32" id="icon-facebook"><title>facebook</title>  <path d="M30.235 0h-28.469c-0.975 0-1.765 0.791-1.765 1.765v28.469c0 0.976 0.791 1.765 1.765 1.765h15.325v-12.392h-4.172v-4.828h4.172v-3.567c0-4.132 2.525-6.38 6.212-6.38 1.767 0 3.285 0.129 3.728 0.188v4.32h-2.561c-2 0-2.389 0.961-2.389 2.361v3.081h4.779l-0.62 4.84h-4.159v12.376h8.153c0.977 0 1.767-0.789 1.767-1.765v-28.469c0-0.975-0.789-1.765-1.765-1.765z"/> </symbol><symbol viewBox="0 0 768 768" id="icon-location"><title>location</title>   <path d="M384 607.5c124.5 0 223.5-99 223.5-223.5s-99-223.5-223.5-223.5-223.5 99-223.5 223.5 99 223.5 223.5 223.5zM670.5 352.5h66v63h-66c-15 133.5-121.5 240-255 255v66h-63v-66c-133.5-15-240-121.5-255-255h-66v-63h66c15-133.5 121.5-240 255-255v-66h63v66c133.5 15 240 121.5 255 255zM384 256.5c70.5 0 127.5 57 127.5 127.5s-57 127.5-127.5 127.5-127.5-57-127.5-127.5 57-127.5 127.5-127.5z"/> </symbol><symbol viewBox="0 0 64 64" id="icon-mail"><title>envelope-o</title>  <path d="M59.429 53.714v-27.429c-0.75 0.857-1.571 1.643-2.464 2.357-5.107 3.929-10.25 7.929-15.214 12.071-2.679 2.25-6 5-9.714 5h-0.071c-3.714 0-7.036-2.75-9.714-5-4.964-4.143-10.107-8.143-15.214-12.071-0.893-0.714-1.714-1.5-2.464-2.357v27.429c0 0.607 0.536 1.143 1.143 1.143h52.571c0.607 0 1.143-0.536 1.143-1.143zM59.429 16.179c0-0.893 0.214-2.464-1.143-2.464h-52.571c-0.607 0-1.143 0.536-1.143 1.143 0 4.071 2.036 7.607 5.25 10.143 4.786 3.75 9.571 7.536 14.321 11.321 1.893 1.536 5.321 4.821 7.821 4.821h0.071c2.5 0 5.929-3.286 7.821-4.821 4.75-3.786 9.536-7.571 14.321-11.321 2.321-1.821 5.25-5.786 5.25-8.821zM64 14.857v38.857c0 3.143-2.571 5.714-5.714 5.714h-52.571c-3.143 0-5.714-2.571-5.714-5.714v-38.857c0-3.143 2.571-5.714 5.714-5.714h52.571c3.143 0 5.714 2.571 5.714 5.714z"/> </symbol><symbol viewBox="0 0 50 64" id="icon-phone"><title>phone</title>  <path d="M50.286 44.286c0 1.286-0.571 3.786-1.107 4.964-0.75 1.75-2.75 2.893-4.357 3.786-2.107 1.143-4.25 1.821-6.643 1.821-3.321 0-6.321-1.357-9.357-2.464-2.179-0.786-4.286-1.75-6.25-2.964-6.071-3.75-13.393-11.071-17.143-17.143-1.214-1.964-2.179-4.071-2.964-6.25-1.107-3.036-2.464-6.036-2.464-9.357 0-2.393 0.679-4.536 1.821-6.643 0.893-1.607 2.036-3.607 3.786-4.357 1.179-0.536 3.679-1.107 4.964-1.107 0.25 0 0.5 0 0.75 0.107 0.75 0.25 1.536 2 1.893 2.714 1.143 2.036 2.25 4.107 3.429 6.107 0.571 0.929 1.643 2.071 1.643 3.179 0 2.179-6.464 5.357-6.464 7.286 0 0.964 0.893 2.214 1.393 3.071 3.607 6.5 8.107 11 14.607 14.607 0.857 0.5 2.107 1.393 3.071 1.393 1.929 0 5.107-6.464 7.286-6.464 1.107 0 2.25 1.071 3.179 1.643 2 1.179 4.071 2.286 6.107 3.429 0.714 0.357 2.464 1.143 2.714 1.893 0.107 0.25 0.107 0.5 0.107 0.75z"/> </symbol><symbol viewBox="0 0 768 768" id="icon-photos"><title>photos</title>   <path d="M64.5 192h63v448.5h448.5v63h-448.5c-34.5 0-63-28.5-63-63v-448.5zM352.5 384l-96 127.5h384l-129-159-94.5 118.5zM703.5 511.5c0 34.5-28.5 64.5-63 64.5h-384c-34.5 0-64.5-30-64.5-64.5v-384c0-34.5 30-63 64.5-63h384c34.5 0 63 28.5 63 63v384z"/> </symbol></svg>